0
SECTION
2
HEADER
9
$INSUNITS
70
4
9
$ACADVER
1
AC1014
9
$HANDSEED
5
FFFF
0
ENDSEC
0
SECTION
2
TABLES
0
TABLE
2
VPORT
5
8
100
AcDbSymbolTable
0
ENDTAB
0
TABLE
2
LTYPE
5
5
100
AcDbSymbolTable
0
LTYPE
5
14
100
AcDbSymbolTableRecord
100
AcDbLinetypeTableRecord
2
BYBLOCK
70
0
0
LTYPE
5
15
100
AcDbSymbolTableRecord
100
AcDbLinetypeTableRecord
2
BYLAYER
70
0
0
ENDTAB
0
TABLE
2
LAYER
5
2
100
AcDbSymbolTable
70
2
0
LAYER
5
50
100
AcDbSymbolTableRecord
100
AcDbLayerTableRecord
2
0
70
0
6
CONTINUOUS
0
ENDTAB
0
TABLE
2
STYLE
5
3
100
AcDbSymbolTable
70
1
0
STYLE
5
11
100
AcDbSymbolTableRecord
100
AcDbTextStyleTableRecord
2
STANDARD
70
0
0
ENDTAB
0
TABLE
2
VIEW
5
6
100
AcDbSymbolTable
70
0
0
ENDTAB
0
TABLE
2
UCS
5
7
100
AcDbSymbolTable
70
0
0
ENDTAB
0
TABLE
2
APPID
5
9
100
AcDbSymbolTable
70
2
0
APPID
5
12
100
AcDbSymbolTableRecord
100
AcDbRegAppTableRecord
2
ACAD
70
0
0
ENDTAB
0
TABLE
2
DIMSTYLE
5
A
100
AcDbSymbolTable
70
1
0
ENDTAB
0
TABLE
2
BLOCK_RECORD
5
1
100
AcDbSymbolTable
70
1
0
BLOCK_RECORD
5
1F
100
AcDbSymbolTableRecord
100
AcDbBlockTableRecord
2
*MODEL_SPACE
0
BLOCK_RECORD
5
1B
100
AcDbSymbolTableRecord
100
AcDbBlockTableRecord
2
*PAPER_SPACE
0
ENDTAB
0
ENDSEC
0
SECTION
2
BLOCKS
0
BLOCK
5
20
100
AcDbEntity
100
AcDbBlockBegin
2
*MODEL_SPACE
0
ENDBLK
5
21
100
AcDbEntity
100
AcDbBlockEnd
0
BLOCK
5
1C
100
AcDbEntity
100
AcDbBlockBegin
2
*PAPER_SPACE
0
ENDBLK
5
1D
100
AcDbEntity
100
AcDbBlockEnd
0
ENDSEC
0
SECTION
2
ENTITIES
0
LWPOLYLINE
5
100
100
AcDbEntity
8
0
100
AcDbPolyline
90
8
70
1
43
0.0
10
-290.00000298023224
20
-20.000001713633537
10
-110.00000298023224
20
-20.000001713633537
42
-0.41421356237309509
10
-75.000002980232239
20
-55.000001713633544
10
-75.000002980232239
20
-145.00000171363354
42
-0.41421356237309503
10
-110.00000298023224
20
-180.00000171363354
10
-290.00000298023224
20
-180.00000171363354
42
-0.41421356237309503
10
-325.00000298023224
20
-145.00000171363354
10
-325.00000298023224
20
-55.000001713633537
42
-0.41421356237309503
0
LWPOLYLINE
5
101
100
AcDbEntity
8
0
100
AcDbPolyline
90
44
70
1
43
0.0
10
-397.00000591576099
20
-185.00000275671482
10
-397.00000591576099
20
-197.00000293552876
10
-370.00000551342964
20
-197.00000293552876
10
-370.00000551342964
20
-200.00000298023224
10
-340.00000506639481
20
-200.00000298023224
10
-340.00000506639481
20
-197.00000293552876
10
-230.00000342726707
20
-197.00000293552876
10
-230.00000342726707
20
-200
10
-170.00000342726707
20
-200
10
-170.00000342726707
20
-197.00000293552876
10
-70.000001043081284
20
-197.00000293552876
10
-70.000001043081284
20
-200
10
-40.000001043081284
20
-200
10
-40.000001043081284
20
-197.00000293552876
10
-3.0000000447034836
20
-197.00000293552876
10
-3.0000000447034836
20
-185.00000275671482
10
0
20
-185.00000275671482
10
0
20
-155.00000230967999
10
-3.0000000447034836
20
-155.00000230967999
10
-3.0000000447034836
20
-45.000000670552254
10
0
20
-45.000000670552254
10
0
20
-15.000000223517418
10
-3.0000000447034836
20
-15.000000223517418
10
-3.0000000447034836
20
-3.0000000447034836
10
-40.000000596046448
20
-3.0000000447034836
10
-40.000000596046448
20
0
10
-70.000001043081284
20
0
10
-70.000001043081284
20
-3.0000000447034836
10
-170.0000025331974
20
-3.0000000447034836
10
-170.0000025331974
20
0
10
-230.00000342726707
20
0
10
-230.00000342726707
20
-3.0000000447034836
10
-340.00000506639481
20
-3.0000000447034836
10
-340.00000506639481
20
0
10
-370
20
0
10
-370
20
-3.0000000447034836
10
-397.00000591576099
20
-3.0000000447034836
10
-397.00000591576099
20
-15.000000670552254
10
-400
20
-15.000000670552254
10
-400
20
-45.000000670552254
10
-397.00000591576099
20
-45.000000670552254
10
-397.00000591576099
20
-155.00000275671482
10
-400
20
-155.00000275671482
10
-400
20
-185.00000275671482
0
ENDSEC
0
SECTION
2
OBJECTS
0
DICTIONARY
5
C
100
AcDbDictionary
3
ACAD_GROUP
350
D
3
ACAD_MLINESTYLE
350
17
0
DICTIONARY
5
D
100
AcDbDictionary
0
DICTIONARY
5
1A
330
C
100
AcDbDictionary
0
DICTIONARY
5
17
100
AcDbDictionary
0
ENDSEC
0
EOF
